HIERARCHY
ROOT Hips
{
	OFFSET 0.00000 0.00000 0.00000
	CHANNELS 6 Xposition Yposition Zposition Zrotation Yrotation Xrotation 
	JOINT LHipJoint
	{
		OFFSET 0 0 0
		CHANNELS 3 Zrotation Yrotation Xrotation
		JOINT LeftUpLeg
		{
			OFFSET 1.80322 -1.53100 0.99595
			CHANNELS 3 Zrotation Yrotation Xrotation
			JOINT LeftLeg
			{
				OFFSET 2.25177 -6.18669 0.00000
				CHANNELS 3 Zrotation Yrotation Xrotation
				JOINT LeftFoot
				{
					OFFSET 2.26601 -6.22582 0.00000
					CHANNELS 3 Zrotation Yrotation Xrotation
					JOINT LeftToeBase
					{
						OFFSET 0.23701 -0.65119 2.15848
						CHANNELS 3 Zrotation Yrotation Xrotation
						End Site
						{
							OFFSET 0.00000 -0.00000 1.12949
						}
					}
				}
			}
		}
	}
	JOINT RHipJoint
	{
		OFFSET 0 0 0
		CHANNELS 3 Zrotation Yrotation Xrotation
		JOINT RightUpLeg
		{
			OFFSET -1.93977 -1.53100 0.99595
			CHANNELS 3 Zrotation Yrotation Xrotation
			JOINT RightLeg
			{
				OFFSET -2.28036 -6.26523 0.00000
				CHANNELS 3 Zrotation Yrotation Xrotation
				JOINT RightFoot
				{
					OFFSET -2.25490 -6.19528 0.00000
					CHANNELS 3 Zrotation Yrotation Xrotation
					JOINT RightToeBase
					{
						OFFSET -0.28375 -0.77960 2.23137
						CHANNELS 3 Zrotation Yrotation Xrotation
						End Site
						{
							OFFSET -0.00000 -0.00000 1.17899
						}
					}
				}
			}
		}
	}
	JOINT LowerBack
	{
		OFFSET 0 0 0
		CHANNELS 3 Zrotation Yrotation Xrotation
		JOINT Spine
		{
			OFFSET -0.00088 2.12090 -0.02806
			CHANNELS 3 Zrotation Yrotation Xrotation
			JOINT Spine1
			{
				OFFSET -0.00286 2.09666 0.12974
				CHANNELS 3 Zrotation Yrotation Xrotation
				JOINT Neck
				{
					OFFSET 0 0 0
					CHANNELS 3 Zrotation Yrotation Xrotation
					JOINT Neck1
					{
						OFFSET 0.07328 1.83526 0.07290
						CHANNELS 3 Zrotation Yrotation Xrotation
						JOINT Head
						{
							OFFSET -0.06683 1.74974 -0.49542
							CHANNELS 3 Zrotation Yrotation Xrotation
							End Site
							{
								OFFSET -0.03398 1.85163 -0.17573
							}
						}
					}
				}
				JOINT LeftShoulder
				{
					OFFSET 0 0 0
					CHANNELS 3 Zrotation Yrotation Xrotation
					JOINT LeftArm
					{
						OFFSET 3.02113 1.18018 0.40602
						CHANNELS 3 Zrotation Yrotation Xrotation
						JOINT LeftForeArm
						{
							OFFSET 4.58538 -0.00000 -0.00000
							CHANNELS 3 Zrotation Yrotation Xrotation
							JOINT LeftHand
							{
								OFFSET 2.68935 -0.00000 -0.00000
								CHANNELS 3 Zrotation Yrotation Xrotation
								JOINT LeftFingerBase
								{
									OFFSET 0 0 0
									CHANNELS 3 Zrotation Yrotation Xrotation
									JOINT LeftHandIndex1
									{
										OFFSET 0.58506 -0.00000 -0.00000
										CHANNELS 3 Zrotation Yrotation Xrotation
										End Site
										{
											OFFSET 0.47169 -0.00000 -0.00000
										}
									}
								}
								JOINT LThumb
								{
									OFFSET 0 0 0
									CHANNELS 3 Zrotation Yrotation Xrotation
									End Site
									{
										OFFSET 0.47889 -0.00000 0.47889
									}
								}
							}
						}
					}
				}
				JOINT RightShoulder
				{
					OFFSET 0 0 0
					CHANNELS 3 Zrotation Yrotation Xrotation
					JOINT RightArm
					{
						OFFSET -2.95074 1.18843 0.31430
						CHANNELS 3 Zrotation Yrotation Xrotation
						JOINT RightForeArm
						{
							OFFSET -4.47450 -0.00000 -0.00000
							CHANNELS 3 Zrotation Yrotation Xrotation
							JOINT RightHand
							{
								OFFSET -2.93896 -0.00000 -0.00000
								CHANNELS 3 Zrotation Yrotation Xrotation
								JOINT RightFingerBase
								{
									OFFSET 0 0 0
									CHANNELS 3 Zrotation Yrotation Xrotation
									JOINT RightHandIndex1
									{
										OFFSET -0.40509 -0.00000 -0.00000
										CHANNELS 3 Zrotation Yrotation Xrotation
										End Site
										{
											OFFSET -0.32660 -0.00000 -0.00000
										}
									}
								}
								JOINT RThumb
								{
									OFFSET 0 0 0
									CHANNELS 3 Zrotation Yrotation Xrotation
									End Site
									{
										OFFSET -0.33158 -0.00000 0.33158
									}
								}
							}
						}
					}
				}
			}
		}
	}
}
MOTION
Frames: 14
Frame Time: .0083333
0.0898 11.8367 0.3118 5.9790 7.8910 17.5172 0.0000 0.0000 0.0000 -3.1966 -20.0685 -82.3516 16.0513 19.6220 78.3845 0.1855 -8.4269 -9.0486 0.0311 -1.1391 -3.1316 0.0000 0.0000 0.0000 -13.9745 -23.3572 -35.5341 -21.0092 -19.9756 92.9518 -3.6762 12.9333 -34.7536 -4.5577 12.8677 -38.8751 -1.2607 2.0901 18.4526 1.7691 2.6973 -0.7390 1.9146 1.4059 -11.3640 3.6995 -6.3714 -10.8927 3.3820 -9.6640 12.2259 -0.2900 -4.2752 5.4802 0.0000 0.0000 0.0000 -96.5869 -50.8233 79.6359 151.0015 -40.0193 -109.2403 -0.0000 0.0000 -10.1351 23.4269 9.1269 3.9318 -7.1250 0.0000 -0.0000 -3.0724 39.8928 0.3872 0.0000 0.0000 0.0000 -0.1512 54.9727 -44.6318 -31.8395 42.4189 -12.6324 0.0000 -0.0000 -14.3136 -13.2740 -21.9825 5.0465 7.1250 -0.0000 -0.0000 15.8048 -51.8183 -2.7098
0.0797 11.8624 0.3141 5.7928 7.6793 17.6256 0.0000 0.0000 0.0000 -2.8044 -20.0452 -82.3307 15.9928 19.6106 78.2102 0.1998 -8.0796 -9.1187 0.0333 -1.1785 -3.2401 0.0000 0.0000 0.0000 -13.5640 -23.1076 -35.7827 -20.9284 -19.9793 92.7153 -3.6557 12.8927 -34.6523 -4.5124 12.8127 -38.6714 -1.4005 1.9373 18.4547 1.7995 2.4676 -0.7370 2.0927 1.3077 -11.3594 4.0728 -6.0519 -10.9233 3.1825 -9.2704 12.2706 -0.3805 -4.0799 5.4734 -0.0000 -0.0000 0.0000 -96.6655 -50.7463 79.6608 151.1071 -39.9254 -109.3081 -0.0000 0.0000 -10.3686 23.5504 9.1386 3.9599 -7.1250 0.0000 -0.0000 -2.9659 39.9158 0.3721 -0.0000 -0.0000 0.0000 3.6569 54.8022 -39.9982 -37.8137 46.7199 -16.8298 0.0000 -0.0000 -17.6867 -13.3628 -22.9211 5.2857 7.1250 -0.0000 -0.0000 16.1511 -52.7451 -3.1441
0.0735 11.8908 0.3160 5.5780 7.3620 17.7333 0.0000 0.0000 0.0000 -2.3621 -20.0038 -82.2848 15.9370 19.5995 78.0439 0.2203 -7.6462 -9.2602 0.0369 -1.2405 -3.4107 0.0000 0.0000 0.0000 -13.1518 -22.7920 -36.0798 -20.8320 -19.9834 92.4334 -3.6277 12.8886 -34.5149 -4.4697 12.7605 -38.4785 -1.5637 1.7687 18.4618 1.8524 2.2140 -0.7137 2.3158 1.2002 -11.3326 4.4364 -5.6818 -10.9791 2.9237 -8.8001 12.2981 -0.4828 -3.8526 5.4657 0.0000 -0.0000 0.0000 -96.7657 -50.7253 79.6248 151.2217 -39.8229 -109.3816 -0.0000 0.0000 -10.6530 23.6740 9.1922 4.0063 -7.1250 0.0000 -0.0000 -2.8637 39.9843 0.3544 0.0000 -0.0000 0.0000 7.6922 54.5757 -35.2545 -45.5626 51.0411 -22.6754 0.0000 -0.0000 -22.1466 -14.5586 -24.0410 6.0396 7.1250 -0.0000 -0.0000 15.5149 -54.0496 -3.5160
0.0717 11.9218 0.3180 5.3439 6.9358 17.8444 0.0000 0.0000 0.0000 -1.8853 -19.9430 -82.2113 15.8841 19.5889 77.8862 0.2462 -7.1307 -9.4754 0.0423 -1.3280 -3.6517 0.0000 0.0000 0.0000 -12.7479 -22.4139 -36.4149 -20.7183 -19.9876 92.1005 -3.5972 12.9143 -34.3656 -4.4316 12.7136 -38.3055 -1.7436 1.5902 18.4698 1.9180 1.9447 -0.6683 2.5669 1.0862 -11.2794 4.7818 -5.2713 -11.0547 2.6300 -8.2679 12.2918 -0.5890 -3.5998 5.4534 0.0000 0.0000 0.0000 -96.8767 -50.7782 79.5342 151.3368 -39.7197 -109.4552 -0.0000 0.0000 -10.9721 23.8005 9.2958 4.0752 -7.1250 0.0000 -0.0000 -2.7642 40.1076 0.3337 0.0000 0.0000 0.0000 11.8997 54.2557 -30.5340 -55.3606 54.9413 -30.5109 0.0000 -0.0000 -27.2226 -16.5959 -25.0441 7.1906 7.1250 -0.0000 -0.0000 13.9648 -55.4234 -3.6245
0.0737 11.9552 0.3200 5.0888 6.3949 17.9671 0.0000 0.0000 0.0000 -1.3765 -19.8457 -82.1175 15.8332 19.5785 77.7345 0.2760 -6.5476 -9.7552 0.0489 -1.4275 -3.9258 0.0000 0.0000 0.0000 -12.3389 -21.9628 -36.7923 -20.5867 -19.9917 91.7156 -3.5687 12.9448 -34.2260 -4.3998 12.6743 -38.1610 -1.9359 1.4128 18.4775 1.9870 1.6747 -0.6118 2.8291 0.9720 -11.2116 5.1083 -4.8345 -11.1290 2.3261 -7.6947 12.2466 -0.6922 -3.3302 5.4329 -0.0000 0.0000 0.0000 -96.9990 -50.9161 79.4089 151.4356 -39.6307 -109.5182 -0.0000 0.0000 -11.3244 23.9330 9.4413 4.1640 -7.1250 0.0000 -0.0000 -2.6638 40.2771 0.3104 -0.0000 0.0000 0.0000 16.2300 53.7936 -25.9431 -67.1870 57.9392 -40.3801 0.0000 -0.0000 -32.4086 -18.8071 -25.7185 8.4068 7.1250 -0.0000 -0.0000 12.0225 -56.5423 -3.4366
0.0789 11.9910 0.3224 4.8098 5.7462 18.1069 0.0000 0.0000 0.0000 -0.8367 -19.7027 -82.0084 15.7836 19.5683 77.5862 0.3077 -5.9151 -10.0857 0.0568 -1.5376 -4.2294 0.0000 0.0000 0.0000 -11.9106 -21.4373 -37.2059 -20.4368 -19.9954 91.2772 -3.5456 12.9627 -34.1125 -4.3737 12.6418 -38.0420 -2.1300 1.2448 18.4862 2.0484 1.4158 -0.5576 3.0807 0.8625 -11.1448 5.4340 -4.3873 -11.1740 2.0246 -7.1047 12.1607 -0.7923 -3.0541 5.3989 0.0000 -0.0000 0.0000 -97.1320 -51.1154 79.2934 151.5231 -39.5516 -109.5741 -0.0000 0.0000 -11.7069 24.0748 9.6194 4.2698 -7.1250 0.0000 -0.0000 -2.5586 40.4831 0.2852 0.0000 -0.0000 0.0000 20.6452 53.1403 -21.5423 -80.4592 59.6532 -51.7470 0.0000 -0.0000 -37.3039 -20.5661 -26.0414 9.3538 7.1250 -0.0000 -0.0000 10.3280 -57.2402 -3.1192
0.0870 12.0288 0.3253 4.5127 5.0019 18.2736 0.0000 0.0000 0.0000 -0.2752 -19.5130 -81.8930 15.7344 19.5580 77.4394 0.3397 -5.2521 -10.4527 0.0658 -1.6545 -4.5518 0.0000 0.0000 0.0000 -11.4628 -20.8493 -37.6514 -20.2690 -19.9983 90.7864 -3.5313 12.9508 -34.0411 -4.3539 12.6170 -37.9512 -2.3298 1.0870 18.4878 2.0974 1.1680 -0.5166 3.3185 0.7579 -11.0870 5.7703 -3.9393 -11.1809 1.7289 -6.5132 12.0521 -0.8915 -2.7774 5.3551 0.0000 -0.0000 0.0000 -97.2679 -51.3544 79.2039 151.6013 -39.4807 -109.6238 -0.0000 0.0000 -12.1043 24.2427 9.8261 4.3945 -7.1250 0.0000 -0.0000 -2.4331 40.7231 0.2568 0.0000 -0.0000 0.0000 25.0930 52.2731 -17.3594 -94.0039 59.9393 -63.4668 0.0000 -0.0000 -41.6367 -21.5594 -26.0994 9.8606 7.1250 -0.0000 -0.0000 9.2940 -57.5151 -2.8648
0.0974 12.0682 0.3288 4.2048 4.1740 18.4757 0.0000 0.0000 0.0000 0.3001 -19.2787 -81.7816 15.6852 19.5477 77.2924 0.3706 -4.5732 -10.8410 0.0751 -1.7677 -4.8641 0.0000 0.0000 0.0000 -10.9998 -20.2119 -38.1346 -20.0856 -19.9998 90.2504 -3.5268 12.9012 -34.0171 -4.3399 12.5995 -37.8872 -2.5489 0.9361 18.4770 2.1374 0.9244 -0.4923 3.5564 0.6562 -11.0392 6.1238 -3.4916 -11.1665 1.4283 -5.9238 11.9487 -0.9954 -2.5010 5.3125 0.0000 -0.0000 0.0000 -97.4119 -51.6253 79.1353 151.6683 -39.4198 -109.6664 -0.0000 0.0000 -12.5026 24.4085 9.9673 4.4912 -7.1250 0.0000 -0.0000 -2.3021 40.8921 0.2334 0.0000 -0.0000 0.0000 29.5055 51.2004 -13.4068 -106.5258 58.9425 -74.2610 0.0000 -0.0000 -45.2147 -21.7345 -25.9264 9.8870 7.1250 -0.0000 -0.0000 9.0235 -57.3770 -2.7503
0.1095 12.1082 0.3319 3.8906 3.2790 18.7314 0.0000 0.0000 0.0000 0.8869 -18.9989 -81.7065 15.6365 19.5372 77.1467 0.3982 -3.8923 -11.2235 0.0849 -1.8795 -5.1728 0.0000 0.0000 0.0000 -10.5211 -19.5438 -38.6800 -19.8918 -19.9997 89.6836 -3.5308 12.8064 -34.0339 -4.3317 12.5892 -37.8497 -2.7973 0.7876 18.4448 2.1743 0.6779 -0.4939 3.8082 0.5552 -11.0060 6.4839 -3.0469 -11.1380 1.1307 -5.3401 11.8636 -1.1006 -2.2260 5.2772 0.0000 0.0000 0.0000 -97.5620 -51.8964 79.0669 151.7361 -39.3580 -109.7094 -0.0000 0.0000 -12.9164 24.5261 10.0371 4.5467 -7.1250 0.0000 -0.0000 -2.2057 40.9792 0.2188 0.0000 0.0000 0.0000 33.8182 49.9176 -9.6622 -117.2418 57.0012 -83.3546 0.0000 -0.0000 -47.9076 -21.2312 -25.4768 9.4871 7.1250 -0.0000 -0.0000 9.3508 -56.8098 -2.7229
0.1238 12.1483 0.3348 3.5893 2.3346 19.0405 0.0000 0.0000 0.0000 1.4586 -18.6916 -81.6691 15.5892 19.5270 77.0054 0.4223 -3.2121 -11.5930 0.0952 -1.9897 -5.4772 0.0000 0.0000 0.0000 -10.0573 -18.8758 -39.2787 -19.6887 -19.9977 89.0898 -3.5415 12.6806 -34.0834 -4.3299 12.5869 -37.8410 -3.0801 0.6374 18.3909 2.2064 0.4219 -0.5174 4.0769 0.4518 -10.9821 6.8467 -2.6078 -11.1170 0.8349 -4.7668 11.8056 -1.2077 -1.9547 5.2552 -0.0000 0.0000 0.0000 -97.7210 -52.1634 79.0187 151.8105 -39.2901 -109.7565 -0.0000 0.0000 -13.2819 24.6126 10.0463 4.5690 -7.1250 0.0000 -0.0000 -2.1302 40.9974 0.2104 -0.0000 0.0000 0.0000 37.9546 48.4305 -6.1314 -126.0124 54.4824 -90.6098 0.0000 -0.0000 -49.6477 -20.1961 -24.7036 8.7399 7.1250 -0.0000 -0.0000 10.0870 -55.8074 -2.6945
0.1397 12.1883 0.3375 3.2934 1.3478 19.3940 0.0000 0.0000 0.0000 2.0137 -18.3479 -81.6670 15.5449 19.5173 76.8728 0.4420 -2.5391 -11.9408 0.1055 -2.0940 -5.7655 0.0000 0.0000 0.0000 -9.6013 -18.2070 -39.9246 -19.4776 -19.9935 88.4723 -3.5556 12.5250 -34.1498 -4.3339 12.5920 -37.8596 -3.3905 0.4900 18.3199 2.2405 0.1644 -0.5569 4.3640 0.3497 -10.9633 7.1928 -2.1783 -11.1156 0.5493 -4.2079 11.7711 -1.3110 -1.6892 5.2478 -0.0000 -0.0000 0.0000 -97.9067 -52.4265 79.0151 151.8947 -39.2130 -109.8098 -0.0000 0.0000 -13.5443 24.6877 10.0529 4.5877 -7.1250 0.0000 -0.0000 -2.0644 41.0116 0.2032 -0.0000 -0.0000 0.0000 41.8088 46.7569 -2.8586 -133.0590 51.6847 -96.2479 0.0000 -0.0000 -50.4665 -18.8044 -23.6193 7.7689 7.1250 -0.0000 -0.0000 11.0415 -54.4346 -2.5834
0.1574 12.2284 0.3407 3.0040 0.3326 19.7685 0.0000 0.0000 0.0000 2.5386 -17.9772 -81.6766 15.5054 19.5086 76.7545 0.4578 -1.8727 -12.2702 0.1151 -2.1875 -6.0240 0.0000 0.0000 0.0000 -9.1634 -17.5472 -40.5799 -19.2560 -19.9867 87.8242 -3.5710 12.3512 -34.2226 -4.3422 12.6024 -37.8977 -3.7110 0.3500 18.2488 2.2753 -0.0852 -0.6057 4.6551 0.2523 -10.9527 7.5094 -1.7659 -11.1184 0.2826 -3.6704 11.7359 -1.4056 -1.4339 5.2446 -0.0000 -0.0000 0.0000 -98.1363 -52.6839 79.0959 151.9879 -39.1274 -109.8687 -0.0000 0.0000 -13.6552 24.7981 10.1172 4.6400 -7.1250 0.0000 -0.0000 -1.9736 41.0923 0.1903 -0.0000 -0.0000 0.0000 45.2953 44.9324 0.0847 -138.7198 48.8104 -100.6028 0.0000 -0.0000 -50.5091 -17.2156 -22.3255 6.7130 7.1250 -0.0000 -0.0000 12.0899 -52.8402 -2.3599
0.1770 12.2688 0.3448 2.7223 -0.6960 20.1415 0.0000 0.0000 0.0000 3.0219 -17.5938 -81.6726 15.4716 19.5011 76.6531 0.4702 -1.2101 -12.5898 0.1228 -2.2593 -6.2227 0.0000 0.0000 0.0000 -8.7526 -16.9077 -41.2071 -19.0218 -19.9770 87.1389 -3.5858 12.1754 -34.2930 -4.3511 12.6135 -37.9383 -4.0249 0.2180 18.1920 2.3092 -0.3230 -0.6553 4.9383 0.1603 -10.9494 7.7928 -1.3723 -11.1241 0.0320 -3.1549 11.6874 -1.4913 -1.1900 5.2408 -0.0000 0.0000 0.0000 -98.4195 -52.9571 79.2402 152.0759 -39.0463 -109.9241 -0.0000 0.0000 -13.6793 24.9224 10.1962 4.7022 -7.1250 0.0000 -0.0000 -1.8716 41.1905 0.1759 -0.0000 0.0000 0.0000 48.3610 43.0306 2.6265 -143.2899 45.9954 -103.9688 0.0000 -0.0000 -49.9899 -15.5606 -20.9705 5.6912 7.1250 -0.0000 -0.0000 13.1629 -51.2047 -2.0419
0.1984 12.3095 0.3502 2.4421 -1.7142 20.4936 0.0000 0.0000 0.0000 3.4698 -17.2167 -81.6376 15.4435 19.4948 76.5691 0.4799 -0.5534 -12.9064 0.1265 -2.2924 -6.3145 0.0000 0.0000 0.0000 -8.3638 -16.2996 -41.7725 -18.7742 -19.9639 86.4139 -3.5990 12.0094 -34.3564 -4.3603 12.6250 -37.9803 -4.3079 0.0893 18.1685 2.3428 -0.5510 -0.7041 5.2014 0.0718 -10.9626 8.0524 -0.9947 -11.1132 -0.2133 -2.6553 11.6102 -1.5723 -0.9554 5.2276 0.0000 0.0000 0.0000 -98.7485 -53.2370 79.4432 152.1587 -38.9698 -109.9763 -0.0000 0.0000 -13.6193 25.0527 10.2760 4.7666 -7.1250 0.0000 -0.0000 -1.7643 41.2903 0.1615 0.0000 0.0000 0.0000 51.0126 41.1338 4.7450 -147.0105 43.3219 -106.5852 0.0000 -0.0000 -49.1507 -13.9845 -19.6800 4.7941 7.1250 -0.0000 -0.0000 14.1710 -49.6776 -1.6641
